HIERARCHY
ROOT hip
{
	OFFSET 0.000000 0.000000 0.000000 
	CHANNELS 6 Xposition Yposition Zposition Xrotation Zrotation Yrotation
	JOINT abdomen
	{
		OFFSET 0.000000 3.402643 0.000000 
		CHANNELS 3 Xrotation Zrotation Yrotation
		JOINT chest
		{
			OFFSET 0.000000 8.438565 -0.680529 
			CHANNELS 3 Xrotation Zrotation Yrotation
			JOINT neck
			{
				OFFSET 0.000000 10.207942 -0.272212 
				CHANNELS 3 Xrotation Zrotation Yrotation
				JOINT head
				{
					OFFSET 0.000000 3.130431 0.000000 
					CHANNELS 3 Xrotation Zrotation Yrotation
					End Site
					{
						OFFSET 0.000000 3.130435 0.000000 
					}
				}
			}
			JOINT lCollar
			{
				OFFSET 3.470700 6.669187 -0.816635 
				CHANNELS 3 Yrotation Zrotation Xrotation
				JOINT lShldr
				{
					OFFSET 3.198488 0.000000 0.000000 
					CHANNELS 3 Zrotation Yrotation Xrotation
					JOINT lForeArm
					{
						OFFSET 10.139888 0.000000 0.000000 
						CHANNELS 3 Yrotation Zrotation Xrotation
						JOINT lHand
						{
							OFFSET 8.370511 0.000000 0.000000 
							CHANNELS 3 Zrotation Yrotation Xrotation
							End Site
							{
								OFFSET 4.083176 0.000000 0.000000 
							}
						}
					}
				}
			}
			JOINT rCollar
			{
				OFFSET -3.470700 6.669187 -0.816635 
				CHANNELS 3 Yrotation Zrotation Xrotation
				JOINT rShldr
				{
					OFFSET -3.198488 0.000000 0.000000 
					CHANNELS 3 Zrotation Yrotation Xrotation
					JOINT rForeArm
					{
						OFFSET -10.139888 0.000000 0.000000 
						CHANNELS 3 Yrotation Zrotation Xrotation
						JOINT rHand
						{
							OFFSET -8.370511 0.000000 0.000000 
							CHANNELS 3 Zrotation Yrotation Xrotation
							End Site
							{
								OFFSET -4.083176 0.000000 0.000000 
							}
						}
					}
				}
			}
		}
	}
	JOINT lThigh
	{
		OFFSET 5.308129 -1.633274 1.361059 
		CHANNELS 3 Xrotation Zrotation Yrotation
		JOINT lShin
		{
			OFFSET -2.041588 -20.007561 0.000000 
			CHANNELS 3 Xrotation Zrotation Yrotation
			JOINT lFoot
			{
				OFFSET 0.000000 -19.190928 -1.224953 
				CHANNELS 3 Xrotation Yrotation Zrotation
				End Site
				{
					OFFSET 0.000000 -2.449906 4.627600 
				}
			}
		}
	}
	JOINT rThigh
	{
		OFFSET -5.308129 -1.633274 1.361059 
		CHANNELS 3 Xrotation Zrotation Yrotation
		JOINT rShin
		{
			OFFSET 2.041588 -20.007561 0.000000 
			CHANNELS 3 Xrotation Zrotation Yrotation
			JOINT rFoot
			{
				OFFSET 0.000000 -19.190928 -1.224953 
				CHANNELS 3 Xrotation Yrotation Zrotation
				End Site
				{
					OFFSET 0.000000 -2.449906 4.627600 
				}
			}
		}
	}
}
MOTION
Frames: 15
Frame Time: 0.033333
-0.909184 51.425175 2.653124 -6.347656 0.166016 -15.839807 48.766365 -7.205108 -8.168540 -30.302734 7.685547 -2.138672 51.063168 8.107644 2.471410 -72.187500 -8.027343 6.561137 2.000000 -2.000000 0.000000 -80.859375 11.093750 14.210864 -31.248081 -2.531228 -1.187497 22.349512 46.780079 21.215181 -2.000000 2.000000 0.000000 76.308594 -19.414064 17.945974 45.101547 1.850404 -1.756555 -29.365589 -48.432102 30.889633 -0.640001 -1.080043 3.757449 26.377369 -5.315371 -2.442229 -11.130697 5.157956 -0.678040 -6.699075 -10.634080 -17.108906 49.407856 3.378502 3.564423 18.377796 -15.230418 0.847677 
-1.799765 51.135105 5.286531 -6.513672 0.341797 -14.111315 49.149277 -4.915970 -10.113744 -30.654299 8.037109 -2.011719 51.063168 8.107644 2.471410 -71.992188 -7.871093 7.705079 2.000000 -2.000000 0.000000 -77.724609 7.324219 17.178982 -35.286579 -2.484176 -1.386268 22.298740 46.690975 19.818176 -2.000000 2.000000 0.000000 78.818359 -22.968752 14.410252 44.570866 2.195664 -1.638630 -28.512438 -48.406872 29.901762 2.715603 -0.963120 2.559198 26.419220 -5.315392 -2.387386 -12.520082 4.199365 -0.276027 -9.177095 -10.578755 -20.816389 42.366024 3.680999 3.443057 6.521223 -11.966283 -2.183693 
-2.727566 51.214973 7.959327 -6.689453 0.693373 -12.392225 49.300571 -3.643587 -11.947991 -30.820313 8.740234 -1.875000 51.063168 8.107644 2.471410 -71.787109 -7.744140 7.958985 2.000000 -2.000000 0.000000 -75.000000 3.349610 19.307213 -39.334023 -2.249022 -1.546743 22.394337 46.615002 18.925934 -2.000000 2.000000 0.000000 80.205078 -26.064455 11.802351 43.517872 1.885979 -1.695807 -27.883484 -48.330082 29.521463 5.881128 -0.535703 1.649679 26.777338 -5.310058 -2.465784 -13.085895 2.788708 -0.612906 -11.619761 -10.865955 -22.862814 35.698757 4.208598 2.422972 -3.250514 -7.721784 -2.784228 
-3.748389 50.872185 10.730597 -6.865234 0.869141 -10.830078 49.574444 -4.294143 -13.489839 -30.263674 10.136719 -1.992129 51.063168 8.107644 2.471410 -71.923828 -7.402342 7.333984 2.000000 -2.000000 0.000000 -72.558594 -1.152344 20.957031 -42.844242 -2.170410 -1.708185 22.230442 46.200863 17.870300 -2.000000 2.000000 0.000000 81.132813 -28.779295 8.974608 42.813629 1.922694 -1.654550 -28.503431 -48.817173 30.826368 9.208126 0.254080 0.583028 27.159376 -5.295934 -2.468051 -13.867768 1.584407 -0.788503 -14.130677 -10.849267 -24.919842 30.918579 4.354273 2.541603 -9.758021 -4.678252 -2.808435 
-4.852265 50.374599 13.579098 -7.050781 1.044922 -9.277165 49.869122 -5.625381 -14.825947 -29.326172 12.060548 -2.011719 51.063168 8.107644 2.471410 -72.207031 -6.845702 6.308594 2.000000 -2.000000 0.000000 -71.806641 -5.976563 19.051718 -45.836102 -2.099826 -1.839437 21.996435 45.296635 18.186790 -2.000000 2.000000 0.000000 80.976563 -30.771484 6.654666 42.109707 1.930732 -1.624745 -30.446764 -49.511154 33.290127 12.247920 1.220744 -0.226416 28.376797 -5.126145 -2.681304 -14.195776 0.510924 -0.891869 -17.382227 -11.307686 -24.423103 28.293200 4.490922 2.342513 -11.156440 -3.123310 -2.447162 
-5.987165 49.717636 16.442528 -7.216797 0.869141 -8.027195 49.569004 -5.970061 -15.220298 -28.769531 12.919923 -2.041015 51.063168 8.107644 2.471410 -72.177734 -6.689452 5.361329 2.000000 -2.000000 0.000000 -72.871094 -10.234375 15.281469 -48.651718 -1.998849 -1.952909 22.092314 44.184956 18.785625 -2.000000 2.000000 0.000000 80.849609 -33.232422 4.525899 41.405762 1.948517 -1.594039 -32.030136 -50.402439 35.590305 14.814368 2.558001 -1.574206 29.966738 -5.127587 -2.743103 -14.332091 0.143514 -0.910971 -20.748774 -11.597494 -22.671755 27.417612 4.520713 2.287597 -9.039777 -3.322795 -2.215974 
-7.145912 48.933182 19.318569 -7.216797 0.341797 -7.255859 48.401123 -4.308031 -14.474282 -28.242188 12.382813 -2.107281 51.063168 8.107644 2.471410 -72.285156 -7.333983 5.086644 2.000000 -2.000000 0.000000 -74.228516 -12.167969 11.394425 -50.060852 -2.142161 -2.062235 21.888462 43.340122 18.672897 -2.000000 2.000000 0.000000 79.980469 -34.765629 3.226853 40.349731 1.965161 -1.544171 -33.320400 -50.670204 36.985809 18.414902 3.924904 -1.491701 30.488459 -4.980538 -2.917323 -14.062653 -1.107283 -0.551032 -23.679543 -11.628794 -20.288338 27.427032 4.638042 1.809526 -7.001182 -3.860133 -1.868917 
-8.321290 47.863880 22.205023 -7.216797 -0.722656 -6.963013 46.933514 -1.542819 -13.190951 -27.734375 10.966796 -2.226562 51.063168 8.107644 2.471410 -72.646484 -7.451171 6.074220 2.000000 -2.000000 0.000000 -74.912109 -10.498047 8.299003 -51.457779 -1.927681 -2.074744 21.528311 42.423519 16.610083 -2.000000 2.000000 0.000000 80.009766 -35.371090 2.226563 39.656746 2.161853 -1.562003 -33.774780 -51.360481 37.293869 23.265947 5.301172 -0.943715 28.176483 -4.687397 -2.621212 -13.483430 1.748503 8.045977 -25.368818 -10.857312 -19.256979 27.596859 4.511489 2.309533 -7.684284 -4.150685 -2.373067 
-9.506132 46.855305 25.099812 -7.216797 -2.626953 -7.080525 45.395588 1.031748 -11.843504 -27.412111 9.394530 -2.216797 51.063168 8.107644 2.471410 -73.681641 -7.148438 7.910157 2.000000 -2.000000 0.000000 -75.341797 -7.451172 5.203812 -52.337521 -1.909888 -2.105118 21.248077 41.538132 13.911859 -2.000000 2.000000 0.000000 81.064453 -34.755859 0.883106 38.948219 2.247916 -1.361391 -34.194275 -52.294353 37.312920 28.680223 6.416265 1.038146 24.130369 -4.788349 -2.238964 -8.979033 8.007575 17.993553 -25.101118 -8.852778 -17.893110 33.056267 4.345670 2.227125 -6.201249 -6.724578 -1.475743 
-10.693210 47.049847 28.000504 -7.060547 -4.892578 -7.841795 44.565231 2.460400 -10.548873 -27.255861 8.505860 -2.412109 51.063168 8.107644 2.471410 -74.042969 -7.255858 9.246814 2.000000 -2.000000 0.000000 -75.634766 -3.759766 3.330078 -52.337521 -1.909888 -2.105118 20.811663 40.805843 11.519064 -2.000000 2.000000 0.000000 82.626953 -33.095707 0.048828 38.424671 2.177925 -1.502390 -34.251488 -53.137566 36.604000 23.559528 8.622108 1.955268 32.226604 -4.614001 -2.746685 16.829012 11.875865 21.828945 -22.593012 -5.739747 -17.848461 33.931034 4.213868 2.727417 -2.253324 -8.980783 -1.521935 
-11.875389 47.827709 30.904890 -6.904297 -6.640625 -8.721832 44.467083 1.968774 -9.355789 -27.265627 8.330079 -2.597656 51.063168 8.107644 2.471410 -73.798828 -7.949218 9.315057 2.000000 -2.000000 0.000000 -76.425781 -1.074219 2.724426 -50.753845 -1.935724 -2.044939 20.729502 41.019039 11.174085 -2.000000 2.000000 0.000000 83.486328 -30.976564 -0.356589 38.072571 2.186531 -1.482329 -34.333118 -52.954556 35.701672 30.368620 9.424087 4.355219 22.363104 -4.994732 -2.100821 31.234287 18.787794 26.651930 -19.267288 -2.744547 -17.851521 33.228073 4.240619 2.707270 2.468738 -10.856786 -1.449710 
-13.045293 49.556114 33.810791 -6.738281 -7.529296 -9.521484 44.811623 0.452760 -8.158122 -27.617188 8.515625 -2.811054 51.063168 8.107644 2.471410 -73.378906 -8.837890 8.691407 2.000000 -2.000000 0.000000 -78.105469 0.654297 3.818472 -46.891964 -2.043609 -1.881840 20.416901 42.184822 12.709116 -2.000000 2.000000 0.000000 83.779297 -28.349609 -0.258543 38.072571 2.186531 -1.482329 -33.667553 -51.845833 33.593369 23.551807 9.765445 5.636341 29.414814 -4.622661 -2.660168 36.521786 23.443544 25.880146 -14.098461 -0.809405 -17.709677 31.650028 4.423865 2.327302 -0.849635 -9.590181 -1.590919 
-14.195987 50.533707 36.715996 -7.089843 -7.167968 -10.567625 45.112930 -1.725456 -7.147951 -27.783205 8.876953 -3.007812 51.063168 8.107644 2.471410 -72.763672 -9.423827 7.723011 2.000000 -2.000000 0.000000 -80.087891 2.275391 6.611717 -41.968189 -2.068870 -1.811912 20.125700 44.201092 15.112654 -2.000000 2.000000 0.000000 82.880859 -25.097656 0.982186 38.072590 2.176783 -1.482899 -32.951942 -49.787483 30.942448 12.980226 9.907625 6.214374 41.225716 -4.176976 -3.092310 32.247761 19.520390 17.287682 -8.256161 0.138836 -18.535658 28.471828 4.491416 2.337507 -2.951340 -7.423247 -2.365190 
-15.320065 51.349735 39.618191 -7.441407 -6.123047 -11.708983 45.413277 -3.971143 -5.992137 -27.773439 9.052735 -3.173828 51.063168 8.107644 2.471410 -72.119141 -9.853516 6.699219 2.000000 -2.000000 0.000000 -82.109375 4.033203 8.965533 -36.342400 -2.447467 -1.427536 20.039267 46.280281 19.012384 -2.000000 2.000000 0.000000 81.865234 -21.601563 2.578125 38.777458 2.327585 -1.552311 -31.742262 -48.017155 28.142069 1.874228 9.990368 7.089954 51.758041 -3.882246 -4.074584 23.076614 14.250690 6.831108 -3.103568 -0.623529 -18.156084 26.192045 4.979005 1.985045 -3.019715 -5.055294 -2.177880 
-16.410473 51.981380 42.515182 -7.958984 -4.716797 -12.910960 45.406204 -7.175150 -5.154747 -27.246094 8.857422 -3.271485 51.063168 8.107644 2.471410 -71.474609 -9.287109 4.755858 2.000000 -2.000000 0.000000 -82.509766 6.582031 11.299947 -31.072063 -2.520907 -1.178325 19.840540 48.464699 22.274694 -2.000000 2.000000 0.000000 81.835938 -17.871094 3.913019 40.184147 2.132606 -1.563714 -31.010220 -46.312366 25.813437 -6.522820 9.871610 8.113269 56.821915 -3.371953 -4.242505 14.505094 11.390138 -0.243362 1.179214 -1.255065 -17.432405 24.487745 4.830398 2.082785 -2.729607 -4.261198 -2.134205 
